<svg width="26" height="24" viewBox="0 0 26 24" fill="none" xmlns="http://www.w3.org/2000/svg">
<g clip-path="url(#clip0_810_675)">
<path d="M2.36328 2.52441H23.6385V21.47H2.36328V2.52441Z" fill="#0F9D58"/>
<path d="M17.7258 12.6336C18.4624 12.6336 19.0552 11.9952 19.0552 11.2128C19.0552 10.4304 18.4579 9.79199 17.7258 9.79199C16.9937 9.79199 16.3964 10.4304 16.3964 11.2128C16.3964 11.9952 16.9937 12.6336 17.7258 12.6336ZM17.7258 13.5792C16.3021 13.5792 14.7705 14.3856 14.7705 15.384V16.4208H20.6811V15.384C20.6811 14.3856 19.1495 13.5792 17.7258 13.5792ZM8.27167 12.6336C9.00824 12.6336 9.60108 11.9952 9.60108 11.2128C9.60108 10.4304 9.00374 9.79199 8.27167 9.79199C7.53959 9.79199 6.94225 10.4304 6.94225 11.2128C6.94225 11.9952 7.53959 12.6336 8.27167 12.6336ZM8.27167 13.5792C6.84793 13.5792 5.31641 14.3856 5.31641 15.384V16.4208H11.2269V15.384C11.2269 14.3856 9.6954 13.5792 8.27167 13.5792Z" fill="#57BB8A"/>
<path d="M13.0037 11.3663C13.9828 11.3663 14.7777 10.5167 14.7732 9.47032C14.7732 8.42392 13.9783 7.57432 12.9992 7.57912C12.0201 7.57912 11.2296 8.42872 11.2296 9.47512C11.2296 10.5215 12.0246 11.3663 13.0037 11.3663ZM13.0037 12.6335C11.0095 12.6335 8.86719 13.7663 8.86719 15.1583V16.4207H17.1401V15.1583C17.1401 13.7615 14.9978 12.6335 13.0037 12.6335Z" fill="#F7F7F7"/>
<path d="M15.3633 20.2129H20.681V21.4753H15.3633V20.2129Z" fill="#F1F1F1"/>
<path d="M24.2304 0H1.77405C0.794956 0 0 0.8496 0 1.896V22.1088C0 23.1504 0.794956 24 1.77405 24H24.2304C25.2095 24 26.0045 23.1504 26.0045 22.104V1.896C26 0.8496 25.2095 0 24.2304 0ZM23.6376 21.4752H2.36241V2.5248H23.6376V21.4752Z" fill="#F4B400"/>
<path opacity="0.2" d="M24.2304 0H1.77405C0.794956 0 0 0.8496 0 1.896V2.0544C0 1.008 0.794956 0.1584 1.77405 0.1584H24.2304C25.2095 0.1584 26.0045 1.008 26.0045 2.0544V1.896C26 0.8496 25.2095 0 24.2304 0Z" fill="white"/>
<path opacity="0.2" d="M24.2304 23.8413H1.77405C0.794956 23.8413 0 22.9917 0 21.9453V22.1037C0 23.1501 0.794956 23.9997 1.77405 23.9997H24.2304C25.2095 23.9997 26.0045 23.1501 26.0045 22.1037V21.9453C26 22.9917 25.2095 23.8413 24.2304 23.8413Z" fill="#BF360C"/>
<path d="M20.6731 21.4756H15.3555L17.7179 24.0004H23.0311L20.6731 21.4756Z" fill="url(#paint0_linear_810_675)"/>
<path opacity="0.2" d="M2.36328 2.36621H23.6385V2.52461H2.36328V2.36621Z" fill="#263238"/>
<path opacity="0.2" d="M2.36328 21.4756H23.6385V21.634H2.36328V21.4756Z" fill="white"/>
<path d="M24.2304 0H1.77405C0.794956 0 0 0.8496 0 1.896V22.1088C0 23.1504 0.794956 24 1.77405 24H24.2304C25.2095 24 26.0045 23.1504 26.0045 22.104V1.896C26 0.8496 25.2095 0 24.2304 0Z" fill="url(#paint1_radial_810_675)"/>
</g>
<defs>
<linearGradient id="paint0_linear_810_675" x1="19.1947" y1="21.5091" x2="19.1947" y2="24.0268" gradientUnits="userSpaceOnUse">
<stop stop-color="#BF360C" stop-opacity="0.2"/>
<stop offset="1" stop-color="#BF360C" stop-opacity="0.02"/>
</linearGradient>
<radialGradient id="paint1_radial_810_675" cx="0" cy="0" r="1" gradientUnits="userSpaceOnUse" gradientTransform="translate(0.895752 0.56253) scale(31.056 33.1906)">
<stop stop-color="white" stop-opacity="0.1"/>
<stop offset="1" stop-color="white" stop-opacity="0"/>
</radialGradient>
<clipPath id="clip0_810_675">
<rect width="26" height="24" fill="white"/>
</clipPath>
</defs>
</svg>
