<svg width="89" height="89" viewBox="0 0 89 89" fill="none" xmlns="http://www.w3.org/2000/svg">
<g filter="url(#filter0_d_259_4729)">
<path d="M44.5 75.25C53.8197 75.25 62.2572 71.4724 68.3648 65.3648C74.4724 59.2572 78.25 50.8197 78.25 41.5C78.25 32.1803 74.4724 23.7428 68.3648 17.6351C62.2572 11.5276 53.8197 7.75 44.5 7.75C35.1803 7.75 26.7428 11.5276 20.6351 17.6351C14.5276 23.7428 10.75 32.1803 10.75 41.5C10.75 50.8197 14.5276 59.2572 20.6351 65.3648C26.7428 71.4724 35.1803 75.25 44.5 75.25Z" fill="#080BA1" stroke="white" stroke-width="4" stroke-linejoin="round"/>
<path d="M31 41.5L41.125 51.625L61.375 31.375" stroke="white" stroke-width="4" stroke-linecap="round" stroke-linejoin="round"/>
</g>
<defs>
<filter id="filter0_d_259_4729" x="-4" y="-4" width="97" height="97" filterUnits="userSpaceOnUse" color-interpolation-filters="sRGB">
<feFlood flood-opacity="0" result="BackgroundImageFix"/>
<feColorMatrix in="SourceAlpha" type="matrix" values="0 0 0 0 0 0 0 0 0 0 0 0 0 0 0 0 0 0 127 0" result="hardAlpha"/>
<feOffset dy="3"/>
<feGaussianBlur stdDeviation="4"/>
<feColorMatrix type="matrix" values="0 0 0 0 0 0 0 0 0 0 0 0 0 0 0 0 0 0 0.24 0"/>
<feBlend mode="normal" in2="BackgroundImageFix" result="effect1_dropShadow_259_4729"/>
<feBlend mode="normal" in="SourceGraphic" in2="effect1_dropShadow_259_4729" result="shape"/>
</filter>
</defs>
</svg>
