<svg width="30" height="30" viewBox="0 0 30 30" fill="none" xmlns="http://www.w3.org/2000/svg">
<path d="M3.15827 7.8629L6.54814 5.88284C6.67881 5.80651 6.84158 5.8046 6.97411 5.87782L14.4797 10.025C14.5433 10.0601 14.6152 10.0786 14.6883 10.0786H15.5189C15.5937 10.0786 15.6672 10.0592 15.7318 10.0225L23.0174 5.88517C23.1535 5.80783 23.3226 5.81073 23.4559 5.89269L26.6693 7.86848C26.9363 8.03263 26.9296 8.4141 26.6576 8.57031C22.581 10.9121 19.9287 12.3328 15.7337 14.7512C15.6685 14.7888 15.5931 14.8092 15.5173 14.8092H14.6873C14.6148 14.8092 14.5436 14.791 14.4804 14.7565L3.16882 8.57433C2.88597 8.41974 2.88012 8.02537 3.15827 7.8629Z" fill="white"/>
<path d="M28.1835 10.1683L28.2257 14.0166C28.2273 14.165 28.1468 14.3027 28.0149 14.377L20.5461 18.5867C20.4828 18.6224 20.4301 18.6734 20.3932 18.7348L19.9735 19.4326C19.9357 19.4954 19.9157 19.5669 19.9155 19.6398L19.9014 27.8509C19.9011 28.0044 19.8131 28.145 19.6731 28.2155L16.2979 29.9167C16.0175 30.058 15.6828 29.8595 15.6817 29.5521C15.666 24.9441 15.7469 21.9981 15.7231 17.2519C15.7227 17.1781 15.7427 17.1045 15.781 17.0408L16.2005 16.3435C16.2371 16.2826 16.2891 16.2319 16.3517 16.1963L27.5476 9.81767C27.8275 9.65817 28.1801 9.85254 28.1835 10.1683Z" fill="white"/>
<path d="M1.75703 10.2049L1.71487 14.0533C1.71324 14.2016 1.79379 14.3393 1.92567 14.4136L9.39447 18.6233C9.45775 18.659 9.51044 18.71 9.54738 18.7715L9.96709 19.4692C10.0049 19.5321 10.0249 19.6035 10.025 19.6764L10.0392 27.8875C10.0394 28.041 10.1275 28.1816 10.2675 28.2521L13.6426 29.9533C13.923 30.0946 14.2578 29.8962 14.2588 29.5888C14.2746 24.9807 14.1936 22.0347 14.2175 17.2885C14.2178 17.2147 14.1978 17.1411 14.1595 17.0774L13.7401 16.3801C13.7035 16.3192 13.6514 16.2685 13.5889 16.2329L2.39298 9.85429C2.11302 9.69479 1.76049 9.88916 1.75703 10.2049Z" fill="white"/>
<path d="M19.0174 4.11358C19.0174 6.38544 17.1255 8.22716 14.7919 8.22716C12.4582 8.22716 10.5664 6.38544 10.5664 4.11358C10.5664 1.84171 12.4582 0 14.7919 0C17.1255 0 19.0174 1.84171 19.0174 4.11358Z" fill="white"/>
<path d="M30.0017 22.2137C30.0017 24.4855 28.1099 26.3273 25.7763 26.3273C23.4426 26.3273 21.5508 24.4855 21.5508 22.2137C21.5508 19.9418 23.4426 18.1001 25.7763 18.1001C28.1099 18.1001 30.0017 19.9418 30.0017 22.2137Z" fill="white"/>
<path d="M8.45095 22.2137C8.45095 24.4855 6.55914 26.3273 4.22548 26.3273C1.89181 26.3273 0 24.4855 0 22.2137C0 19.9418 1.89181 18.1001 4.22548 18.1001C6.55914 18.1001 8.45095 19.9418 8.45095 22.2137Z" fill="white"/>
</svg>
